<?xml version="1.0" encoding="utf-8"?>
<!-- Generator: Adobe Illustrator 21.0.0, SVG Export Plug-In . SVG Version: 6.00 Build 0)  -->
<svg version="1.1" id="Layer_1" xmlns="http://www.w3.org/2000/svg" xmlns:xlink="http://www.w3.org/1999/xlink" x="0px" y="0px"
	 viewBox="0 0 36 36" style="enable-background:new 0 0 36 36;" xml:space="preserve">
<path d="M33.73,19.96c0-0.87-0.39-1.53-1.17-1.98c0.42-0.96,0.63-1.71,0.63-2.25c0-1.92-0.96-3.42-2.88-4.5
	c0.24-0.42,0.36-0.7,0.36-0.85c0-0.81-0.33-1.38-0.99-1.71c-0.45-0.15-0.78-0.24-0.99-0.27c-0.3-1.2-0.84-2.19-1.62-2.97
	c-0.9-0.87-1.94-1.31-3.11-1.31c-0.33,0-0.86,0.07-1.58,0.2c-0.72,0.13-0.9,0.2-0.54,0.2c0-0.03-0.21-0.27-0.63-0.72
	C20.08,2.6,18.76,2,17.26,2c-2.88,0-4.75,1.49-5.63,4.46c-0.69-0.75-1.57-1.13-2.66-1.13c-0.99,0-1.82,0.33-2.47,0.99
	C5.84,6.98,5.51,7.81,5.51,8.8c0,0.84,0.16,1.42,0.49,1.75c-0.69,0.36-1,1.02-0.95,1.98c-0.75,0.09-1.36,0.42-1.82,0.99
	c-0.47,0.57-0.7,1.23-0.7,1.98c0,0.81,0.38,1.61,1.12,2.38c-0.93,0.72-1.39,1.64-1.39,2.75c0,0.72,0.36,1.51,1.08,2.39
	c0.72,0.87,1.44,1.31,2.16,1.31c2.22,0,3.57-0.86,4.05-2.57c1.8,0.33,3.09,0.87,3.87,1.62c0.9,0.84,1.35,2.12,1.35,3.83
	c0,0.75-0.04,1.21-0.11,1.4c-0.07,0.18-0.34,0.38-0.81,0.61c-0.47,0.23-0.8,0.34-1.01,0.34c-0.09,0-0.21-0.01-0.36-0.05
	c-0.15-0.03-0.27-0.05-0.36-0.05c-0.54,0-1.32,0.3-2.34,0.9c-0.87,0.51-1.4,0.85-1.57,1.04l1.26,0.09c0.81-0.18,1.41-0.27,1.8-0.27
	c0.81,0,1.68,0.15,2.61,0.45c0.39,1.17,0.62,1.8,0.67,1.89h0.23c0.81-1.23,1.37-1.86,1.66-1.89c0.15,0.39,0.28,0.78,0.4,1.17
	c0.27,0.57,0.6,0.96,0.99,1.17c0-0.21,0.16-0.6,0.5-1.17c0.33-0.57,0.58-0.85,0.77-0.85c0.18,0,0.61,0.29,1.3,0.85
	c0.69,0.57,1.29,0.87,1.8,0.9c0.15-0.6,0.24-1.05,0.27-1.35h0.59c0.15,0,0.46,0.06,0.92,0.18c0.47,0.12,0.83,0.18,1.1,0.18
	c1.02,0,1.53-0.18,1.53-0.54l-1.26-0.63c1.05-0.24,1.78-0.33,2.21-0.27c0.09-0.3-0.17-0.54-0.77-0.72
	c-0.42-0.12-0.83-0.18-1.22-0.18h-0.54c-0.27,0.03-0.47,0.05-0.59,0.05c-0.18-0.03-0.67-0.17-1.46-0.43
	c-0.79-0.25-1.32-0.57-1.57-0.95c-0.26-0.38-0.38-0.97-0.38-1.78c0-0.51,0.09-1.31,0.27-2.39c0.21-1.32,0.48-2.16,0.81-2.52
	c0.21-0.24,1.02-0.56,2.43-0.95c1.32-0.39,2.2-0.59,2.66-0.59l2.12,0.09c0.45,0.9,1.16,1.35,2.11,1.35c0.6,0,1.13-0.24,1.6-0.72
	C33.5,21.1,33.73,20.56,33.73,19.96L33.73,19.96z M9.79,19.19c0.72-0.39,1.5-0.58,2.34-0.58c0.69,0,1.37,0.28,2.05,0.85
	c0.67,0.57,1.01,1.2,1.01,1.89v0.58C13.18,20.02,11.38,19.1,9.79,19.19z M12.89,16.11c-0.69-0.17-1.21-0.23-1.57-0.2
	c0-0.42,0.63-0.79,1.89-1.12c0.33,0.54,0.72,1.06,1.17,1.58C14.08,16.36,13.58,16.27,12.89,16.11z M15.82,13.48V12.8
	c0.15,0,0.58,0.06,1.31,0.18v1.98L15.82,13.48z M20.95,16.67V12.8c0.99,0.45,1.66,0.75,2.03,0.9
	C23.03,14.87,22.36,15.86,20.95,16.67z M25.45,19.01c-1.59,0.3-3.06,0.81-4.41,1.53c0.45-0.54,0.98-1.03,1.6-1.46
	c0.62-0.43,1.22-0.86,1.82-1.28L25.45,19.01L25.45,19.01z"/>
</svg>
